<svg width="102" height="17" viewBox="0 0 102 17" fill="none" xmlns="http://www.w3.org/2000/svg">
<path d="M91.9963 16.2376V14.9261H94.8816V7.14472C94.8816 7.02814 94.8379 6.92614 94.7504 6.83871C94.663 6.75127 94.561 6.70756 94.4444 6.70756H92.3242V5.39608H94.9909C95.4135 5.39608 95.7413 5.50537 95.9745 5.72395C96.2076 5.94253 96.3242 6.26311 96.3242 6.6857V7.29772H96.4116C96.5719 6.61284 96.8852 6.08096 97.3515 5.70209C97.8324 5.32322 98.4517 5.13379 99.2095 5.13379H101.395V6.75128H99.2095C98.3206 6.75128 97.6284 7.04271 97.1329 7.62559C96.6521 8.20847 96.4116 8.98807 96.4116 9.96439V14.9261H99.8433V16.2376H91.9963Z" fill="white"/>
<path d="M83.5241 16.4999C82.5186 16.4999 81.6297 16.2668 80.8574 15.8005C80.0851 15.3342 79.4803 14.6784 79.0432 13.8332C78.606 12.9735 78.3875 11.968 78.3875 10.8168C78.3875 9.65109 78.606 8.64563 79.0432 7.80046C79.4803 6.95528 80.0851 6.29954 80.8574 5.83324C81.6297 5.36694 82.5186 5.13379 83.5241 5.13379C84.5295 5.13379 85.4184 5.36694 86.1907 5.83324C86.963 6.29954 87.5678 6.95528 88.0049 7.80046C88.4421 8.64563 88.6607 9.65109 88.6607 10.8168C88.6607 11.968 88.4421 12.9735 88.0049 13.8332C87.5678 14.6784 86.963 15.3342 86.1907 15.8005C85.4184 16.2668 84.5295 16.4999 83.5241 16.4999ZM83.5241 15.0573C84.1944 15.0573 84.7918 14.9043 85.3164 14.5983C85.8556 14.2923 86.2855 13.826 86.606 13.1994C86.9266 12.5728 87.0869 11.7786 87.0869 10.8168C87.0869 9.84053 86.9266 9.04636 86.606 8.43433C86.2855 7.80774 85.8556 7.34144 85.3164 7.03543C84.7918 6.72942 84.1944 6.57641 83.5241 6.57641C82.8683 6.57641 82.2709 6.72942 81.7317 7.03543C81.1926 7.34144 80.7627 7.80774 80.4421 8.43433C80.1215 9.04636 79.9612 9.84053 79.9612 10.8168C79.9612 11.7786 80.1215 12.5728 80.4421 13.1994C80.7627 13.826 81.1926 14.2923 81.7317 14.5983C82.2709 14.9043 82.8683 15.0573 83.5241 15.0573Z" fill="white"/>
<path d="M70.4179 16.4999C69.4124 16.4999 68.5235 16.2668 67.7512 15.8005C66.9789 15.3342 66.3741 14.6784 65.937 13.8332C65.4998 12.9735 65.2812 11.968 65.2812 10.8168C65.2812 9.65109 65.4998 8.64563 65.937 7.80046C66.3741 6.95528 66.9789 6.29954 67.7512 5.83324C68.5235 5.36694 69.4124 5.13379 70.4179 5.13379C71.4233 5.13379 72.3122 5.36694 73.0845 5.83324C73.8568 6.29954 74.4616 6.95528 74.8987 7.80046C75.3359 8.64563 75.5545 9.65109 75.5545 10.8168C75.5545 11.968 75.3359 12.9735 74.8987 13.8332C74.4616 14.6784 73.8568 15.3342 73.0845 15.8005C72.3122 16.2668 71.4233 16.4999 70.4179 16.4999ZM70.4179 15.0573C71.0882 15.0573 71.6856 14.9043 72.2102 14.5983C72.7494 14.2923 73.1792 13.826 73.4998 13.1994C73.8204 12.5728 73.9807 11.7786 73.9807 10.8168C73.9807 9.84053 73.8204 9.04636 73.4998 8.43433C73.1792 7.80774 72.7494 7.34144 72.2102 7.03543C71.6856 6.72942 71.0882 6.57641 70.4179 6.57641C69.7621 6.57641 69.1647 6.72942 68.6255 7.03543C68.0864 7.34144 67.6565 7.80774 67.3359 8.43433C67.0153 9.04636 66.855 9.84053 66.855 10.8168C66.855 11.7786 67.0153 12.5728 67.3359 13.1994C67.6565 13.826 68.0864 14.2923 68.6255 14.5983C69.1647 14.9043 69.7621 15.0573 70.4179 15.0573Z" fill="white"/>
<path d="M57.0711 16.5C56.1385 16.5 55.3079 16.2814 54.5793 15.8443C53.8652 15.3925 53.3042 14.7441 52.8962 13.8989C52.4882 13.0392 52.2842 12.0046 52.2842 10.7951C52.2842 9.58561 52.4882 8.55829 52.8962 7.71311C53.3042 6.86794 53.8652 6.22678 54.5793 5.78962C55.3079 5.35246 56.1385 5.13388 57.0711 5.13388C57.96 5.13388 58.6886 5.30874 59.2569 5.65847C59.8252 6.0082 60.2478 6.4745 60.5246 7.05738V0.5H62.0547V16.2377H60.8743L60.6558 14.5109H60.5246C60.2478 15.123 59.8106 15.6111 59.2131 15.9754C58.6303 16.3251 57.9162 16.5 57.0711 16.5ZM57.1804 15.0574C58.1567 15.0574 58.9581 14.7077 59.5847 14.0082C60.2113 13.3087 60.5246 12.245 60.5246 10.8169C60.5246 9.38889 60.2113 8.32514 59.5847 7.62568C58.9581 6.92623 58.1567 6.5765 57.1804 6.5765C56.204 6.5765 55.4026 6.92623 54.776 7.62568C54.1494 8.32514 53.8361 9.38889 53.8361 10.8169C53.8361 12.245 54.1494 13.3087 54.776 14.0082C55.4026 14.7077 56.204 15.0574 57.1804 15.0574Z" fill="white"/>
<path d="M40.271 16.2377V0.5H41.8011V10.0082L46.5442 5.39617H48.5114L43.506 10.2268V10.3579L49.1016 16.2377H47.2L41.8011 10.5546V16.2377H40.271Z" fill="white"/>
<path d="M31.2739 16.4999C30.3413 16.4999 29.4961 16.2813 28.7384 15.8442C27.9806 15.3924 27.3759 14.744 26.9242 13.8988C26.4724 13.0536 26.2466 12.0263 26.2466 10.8168C26.2466 9.60738 26.4724 8.58005 26.9242 7.73488C27.3905 6.88971 28.0025 6.24854 28.7602 5.81138C29.518 5.35965 30.3559 5.13379 31.2739 5.13379C32.6 5.13379 33.6418 5.46166 34.3996 6.11739C35.1719 6.77313 35.6673 7.64016 35.8859 8.71849H34.3559C34.1664 8.06275 33.8021 7.54545 33.263 7.16657C32.7384 6.77313 32.0754 6.57641 31.2739 6.57641C30.6765 6.57641 30.1154 6.72942 29.5908 7.03543C29.0663 7.34144 28.6364 7.80774 28.3012 8.43433C27.9806 9.04636 27.8204 9.84053 27.8204 10.8168C27.8204 11.7786 27.9806 12.5801 28.3012 13.2212C28.6364 13.8478 29.0663 14.3141 29.5908 14.6201C30.1154 14.9261 30.6765 15.0791 31.2739 15.0791C32.1337 15.0791 32.8185 14.8824 33.3285 14.489C33.8386 14.081 34.181 13.5564 34.3559 12.9152H35.8859C35.6236 14.0372 35.0918 14.9189 34.2903 15.56C33.5034 16.1866 32.4979 16.4999 31.2739 16.4999Z" fill="white"/>
<path d="M17.1188 16.4999C16.2591 16.4999 15.5451 16.3469 14.9767 16.0409C14.423 15.7349 14.0077 15.3269 13.7308 14.8168C13.4685 14.3068 13.3374 13.7531 13.3374 13.1556C13.3374 12.019 13.7527 11.1739 14.5833 10.6201C15.4285 10.0518 16.4922 9.76767 17.7746 9.76767H20.8784V9.57095C20.8784 8.55091 20.6307 7.78588 20.1352 7.27587C19.6543 6.75128 18.9622 6.48898 18.0587 6.48898C17.301 6.48898 16.6744 6.65656 16.1789 6.99171C15.6981 7.3123 15.392 7.82231 15.2609 8.52177H13.6434C13.7163 7.79317 13.9567 7.18115 14.3647 6.6857C14.7873 6.17568 15.3192 5.78953 15.9604 5.52723C16.6015 5.26494 17.301 5.13379 18.0587 5.13379C19.5742 5.13379 20.6744 5.54909 21.3593 6.37969C22.0587 7.19572 22.4084 8.25947 22.4084 9.57095V16.2376H21.097L20.944 14.489H20.8128C20.4922 15.0281 20.0478 15.5017 19.4795 15.9097C18.9112 16.3032 18.1243 16.4999 17.1188 16.4999ZM17.3593 15.101C18.0879 15.101 18.7145 14.9189 19.239 14.5546C19.7636 14.1903 20.1644 13.7167 20.4412 13.1338C20.7327 12.5509 20.8784 11.9389 20.8784 11.2977V11.0791H17.8839C16.8055 11.0791 16.0405 11.2686 15.5888 11.6475C15.1516 12.0263 14.933 12.5145 14.933 13.1119C14.933 13.724 15.137 14.2121 15.5451 14.5764C15.9531 14.9261 16.5578 15.101 17.3593 15.101Z" fill="white"/>
<path d="M5.12716 16.5C4.28199 16.5 3.56068 16.3251 2.96323 15.9754C2.38035 15.6111 1.95048 15.1302 1.67361 14.5328H1.54246L1.32388 16.2377H0.143555V0.5H1.67361V7.05738C1.96505 6.54736 2.40949 6.10291 3.00694 5.72404C3.60439 5.3306 4.31113 5.13388 5.12716 5.13388C6.07434 5.13388 6.90494 5.35246 7.61897 5.78962C8.33299 6.22678 8.89401 6.86794 9.30203 7.71311C9.71004 8.55829 9.91405 9.58561 9.91405 10.7951C9.91405 12.0046 9.71004 13.0392 9.30203 13.8989C8.89401 14.7441 8.32571 15.3925 7.59711 15.8443C6.88308 16.2814 6.05977 16.5 5.12716 16.5ZM5.01787 15.0574C5.99419 15.0574 6.79565 14.7077 7.42224 14.0082C8.04884 13.3087 8.36213 12.245 8.36213 10.8169C8.36213 9.38889 8.04884 8.32514 7.42224 7.62568C6.79565 6.92623 5.99419 6.5765 5.01787 6.5765C4.04155 6.5765 3.24009 6.92623 2.6135 7.62568C1.98691 8.32514 1.67361 9.38889 1.67361 10.8169C1.67361 12.245 1.98691 13.3087 2.6135 14.0082C3.24009 14.7077 4.04155 15.0574 5.01787 15.0574Z" fill="white"/>
</svg>
